<svg width="40" height="41" viewBox="0 0 40 41" fill="none" xmlns="http://www.w3.org/2000/svg">
<rect y="0.5" width="40" height="40" rx="12" fill="#299AB3"/>
<path fill-rule="evenodd" clip-rule="evenodd" d="M12.3372 20.3522C16.4185 18.5741 19.14 17.4018 20.5017 16.8354C24.3896 15.2183 25.1975 14.9374 25.7241 14.9281C25.8399 14.9261 26.0988 14.9548 26.2666 15.0909C26.4082 15.2058 26.4472 15.361 26.4658 15.47C26.4845 15.579 26.5077 15.8272 26.4892 16.0211C26.2785 18.2349 25.3669 23.607 24.9031 26.0864C24.7069 27.1356 24.3204 27.4873 23.9463 27.5218C23.1333 27.5966 22.516 26.9845 21.7285 26.4683C20.4963 25.6606 19.8002 25.1578 18.6042 24.3696C17.222 23.4587 18.118 22.9581 18.9057 22.1399C19.1119 21.9258 22.694 18.6676 22.7633 18.372C22.772 18.335 22.7801 18.1973 22.6982 18.1245C22.6163 18.0517 22.4955 18.0766 22.4083 18.0964C22.2848 18.1245 20.3163 19.4255 16.5031 21.9996C15.9443 22.3832 15.4382 22.5702 14.9848 22.5604C14.4849 22.5496 13.5234 22.2777 12.8086 22.0454C11.9318 21.7604 11.235 21.6097 11.2957 21.1257C11.3273 20.8736 11.6745 20.6158 12.3372 20.3522Z" fill="white"/>
</svg>
