<svg width="40" height="41" viewBox="0 0 40 41" fill="none" xmlns="http://www.w3.org/2000/svg">
<rect y="0.5" width="40" height="40" rx="12" fill="#29B337"/>
<path fill-rule="evenodd" clip-rule="evenodd" d="M24.6568 23.7969C24.464 24.3426 23.6976 24.7941 23.0864 24.9262C22.668 25.015 22.1224 25.0853 20.284 24.3234C18.2192 23.468 15.352 20.4208 15.352 18.393C15.352 17.3607 15.9472 16.1586 16.988 16.1586C17.4888 16.1586 17.5992 16.1684 17.764 16.5637C17.9568 17.0294 18.4272 18.1769 18.4832 18.2945C18.7144 18.7771 18.248 19.0596 17.9096 19.4797C17.8016 19.6061 17.6792 19.7429 17.816 19.9781C17.952 20.2086 18.4224 20.9752 19.1136 21.5906C20.0064 22.3861 20.7304 22.64 20.9896 22.748C21.1824 22.8281 21.4128 22.8094 21.5536 22.659C21.732 22.4661 21.9536 22.1462 22.1792 21.8309C22.3384 21.6052 22.5408 21.577 22.7528 21.657C22.896 21.7066 24.716 22.5519 24.7928 22.6871C24.8496 22.7855 24.8496 23.2511 24.6568 23.7969ZM20.0016 12.5H19.9976C15.5872 12.5 12 16.0883 12 20.5C12 22.2493 12.564 23.8723 13.5232 25.1887L12.5264 28.1613L15.6008 27.1789C16.8656 28.016 18.3752 28.5 20.0016 28.5C24.412 28.5 28 24.9117 28 20.5C28 16.0883 24.412 12.5 20.0016 12.5Z" fill="white"/>
</svg>
